<svg xmlns="http://www.w3.org/2000/svg" width="56" height="28" viewBox="0 0 56 28">
    <defs>
        <style>
            .cls-3{fill:#000001}
        </style>
    </defs>
    <g id="ci_stone" transform="translate(-275 -30)">
        <path id="사각형_112" fill="none" d="M0 0H56V28H0z" transform="translate(275 30)"/>
        <g id="그룹_73" transform="translate(206.72 -78.953)">
            <path id="패스_100" fill="#1a1311" d="M68.28 108.953v27.736h56v-27.736zm52.973 24.823H70.992v-21.91h50.26z" transform="translate(0 0)"/>
            <g id="그룹_72" transform="translate(75.069 114.529)">
                <path id="패스_101" d="M93.171 127.741c0-.276-.171-.427-.486-.427h-2.056c-.314 0-.486.15-.486.427v.855c0 .276.171.364.486.427l2.656.5c1.114.214 2.057.8 2.057 1.81v1.634a1.829 1.829 0 0 1-2.028 1.785h-3.2a1.829 1.829 0 0 1-2.028-1.785v-1.156h2v.8c0 .277.171.427.485.427H92.8c.314 0 .485-.15.485-.427v-.955c0-.277-.171-.364-.485-.427l-2.656-.5c-1.114-.214-2.056-.8-2.056-1.81v-1.529a1.829 1.829 0 0 1 2.028-1.785h3.027a1.828 1.828 0 0 1 2.028 1.785v1.056h-2z" class="cls-3" transform="translate(-88.087 -125.605)"/>
                <path id="패스_102" d="M118.174 127.436v7.364h-2.056v-7.364h-2.685v-1.684h7.426v1.684z" class="cls-3" transform="translate(-104.876 -125.701)"/>
                <path id="패스_103" d="M144.749 125.605a1.829 1.829 0 0 1 2.028 1.785v5.58a1.828 1.828 0 0 1-2.028 1.785h-3.442a1.828 1.828 0 0 1-2.028-1.785v-5.58a1.828 1.828 0 0 1 2.028-1.785zm-.028 2.136c0-.276-.171-.427-.486-.427h-2.413c-.314 0-.485.15-.485.427v4.876c0 .277.171.427.485.427h2.413c.315 0 .486-.15.486-.427z" class="cls-3" transform="translate(-121.998 -125.605)"/>
                <path id="패스_104" d="M173.374 125.751v9.049h-2.214l-3.784-6.17v6.17h-1.928v-9.048h2.213l3.785 6.171v-6.171z" class="cls-3" transform="translate(-139.337 -125.701)"/>
                <path id="패스_105" d="M199.572 125.751v1.709H194.9v1.86h3.784v1.709H194.9v2.061h4.67v1.71h-6.726v-9.048z" class="cls-3" transform="translate(-157.469 -125.701)"/>
                <path id="사각형_65" d="M0 0H1.055V4.643H0z" class="cls-3" transform="translate(0 11.915)"/>
                <path id="패스_106" d="M100.691 160.365v4.643h-1.136l-1.942-3.166v3.166h-.989v-4.643h1.136l1.942 3.166v-3.166z" class="cls-3" transform="translate(-93.698 -148.45)"/>
                <path id="패스_107" d="M115.211 161.229v3.779h-1.055v-3.779h-1.377v-.864h3.81v.864z" class="cls-3" transform="translate(-104.43 -148.45)"/>
                <path id="패스_108" d="M132.214 160.365v.877h-2.4v.954h1.942v.877h-1.942v1.057h2.4v.877h-3.451v-4.643z" class="cls-3" transform="translate(-115.009 -148.45)"/>
                <path id="패스_109" d="M146.959 161.386c0-.142-.088-.219-.249-.219h-1.21c-.161 0-.249.077-.249.219v2.5c0 .142.088.219.249.219h1.209c.161 0 .249-.077.249-.219v-.69h-.967v-.838h2.022v1.709a.938.938 0 0 1-1.04.916h-1.737a.938.938 0 0 1-1.041-.916V161.2a.939.939 0 0 1 1.041-.916h1.737a.938.938 0 0 1 1.04.916v.606h-1.055z" class="cls-3" transform="translate(-125.227 -148.4)"/>
                <path id="패스_110" d="M163.906 165.077l-.85-1.721h-.85v1.721h-1.055v-4.643h2.689a.938.938 0 0 1 1.041.915v1.09a.884.884 0 0 1-.718.878l.879 1.76zm-.081-3.546c0-.142-.088-.219-.249-.219h-1.37v1.18h1.37c.161 0 .249-.077.249-.219z" class="cls-3" transform="translate(-136.45 -148.495)"/>
                <path id="사각형_66" d="M0 0H1.055V4.643H0z" class="cls-3" transform="translate(30.376 11.915)"/>
                <path id="패스_111" d="M188.239 161.229v3.779h-1.055v-3.779h-1.378v-.864h3.81v.864z" class="cls-3" transform="translate(-152.842 -148.45)"/>
                <path id="패스_112" d="M201.523 165.008V163.4l-1.627-3.037h1.158l1 1.986 1-1.986h1.146l-1.627 3.037v1.605z" class="cls-3" transform="translate(-162.102 -148.45)"/>
            </g>
        </g>
    </g>
</svg>
