<svg xmlns="http://www.w3.org/2000/svg" width="186" height="20.003" viewBox="0 0 186 20.003">
    <defs>
        <style>
            .cls-3{fill:#fff}
        </style>
    </defs>
    <g id="ci" transform="translate(-867 -1309)">
        <path id="사각형_109" fill="none" d="M0 0H186V20H0z" transform="translate(867 1309)"/>
        <g id="그룹_64" opacity="0.4" transform="translate(397.069 880.029)">
            <path id="패스_70" d="M517.613 431.077c-3.293.085-6.007 2.953-6.963 6.693 2.687.708 4.465 2.215 4.6 5.19.088 1.877-1.184 3.593-3.338 4.678 1.11 1.45 2.9 2.307 5.7 2.2 5.669-.222 7.364-3.165 7.364-8.344 0-5.114-1.959-10.416-7.163-10.417h-.2" class="cls-3" transform="translate(-16.857 -0.871)"/>
            <path id="패스_71" d="M486.036 447.754c-.1 2.96 4.44 5.919 10.147 5.919a12.151 12.151 0 0 0 5.543-1.224c-1.337-1.783-1.692-4.448-1.633-7.338a12.467 12.467 0 0 1 .366-2.744 20.6 20.6 0 0 0-5-.563h-.215c-6.413 0-9.112 3.339-9.206 5.951" class="cls-3" transform="translate(-6.666 -5.721)"/>
            <path id="패스_72" d="M535.314 432.6a3.361 3.361 0 0 0 3.7 3.631 3.436 3.436 0 0 0 3.7-3.631c0-2.283-1-3.63-3.7-3.63s-3.7 1.348-3.7 3.63" class="cls-3" transform="translate(-27.866 0)"/>
            <path id="패스_73" d="M469.931 449.869c0 1.79.866 2.99 3.875 2.99s3.876-1.2 3.876-2.99-1.821-5.043-3.876-5.043-3.875 3.253-3.875 5.043" class="cls-3" transform="translate(0 -6.87)"/>
            <path id="패스_74" d="M538.323 449.857c0 2.126 1.96 3.252 9.459 3.252 5.223 0 9.4-1.725 9.46-3.85V449.207c-.019-2.559-6.4-4.131-11.588-4.131-5.225 0-7.332 2.653-7.332 4.78" class="cls-3" transform="translate(-29.205 -7.076)"/>
            <path id="패스_75" d="M756.438 454.793h-1.8v3.666h8.321v-1.646h-6.525z" class="cls-3" transform="translate(-121.66 -11.098)"/>
            <path id="패스_76" d="M585.558 438.489a1.913 1.913 0 1 1 1.911 1.912 1.911 1.911 0 0 1-1.911-1.912m5.573 0a3.633 3.633 0 0 0-.531-1.889h1.033v-1.646H588.4l-.032-.008v-1.118h-1.8v1.116l-.041.011h-3.241v1.645h1.045a3.659 3.659 0 1 0 6.792 1.889" class="cls-3" transform="translate(-48.322 -2.011)"/>
            <path id="패스_77" d="M775.708 438.393a1.872 1.872 0 0 1 1.435-1.8 1.9 1.9 0 0 1 .956 0 1.87 1.87 0 1 1-2.391 1.8m7.59-4.1v9.117h-4.783v-1.56a3.593 3.593 0 0 0 2.77-3.457 3.471 3.471 0 0 0-.531-1.841h1.034v-1.6h-3.231l-.032-.008v-1.09h-1.8v1.088l-.041.01h-3.244v1.6h1.047a3.471 3.471 0 0 0-.532 1.841 3.592 3.592 0 0 0 2.763 3.456v1.564h-3.283v1.605h9.865v4.374h1.8V434.3z" class="cls-3" transform="translate(-129.441 -2.019)"/>
            <path id="패스_78" d="M735.6 443.149h-9.449v1.646h3.406v5.33h1.793v-5.33h4.25v5.33h1.8v-15.494h-1.8z" class="cls-3" transform="translate(-109.866 -2.752)"/>
            <path id="패스_79" d="M730.234 436.447a1.986 1.986 0 1 1-1.987 1.985 1.991 1.991 0 0 1 1.987-1.985m0 5.717a3.732 3.732 0 1 0-3.732-3.731 3.735 3.735 0 0 0 3.732 3.731" class="cls-3" transform="translate(-109.351 -2.478)"/>
            <path id="패스_80" d="M601.792 434.63H600v10.98h1.8v-5.588h1.547v-1.647H601.8z" class="cls-3" transform="translate(-55.398 -2.487)"/>
            <path id="패스_81" d="M589.885 451.959h-1.8v5.355l8.778-.016v-1.645l-6.981.016z" class="cls-3" transform="translate(-50.369 -9.925)"/>
            <path id="패스_82" d="M607.169 447.744h4.986v1.788h-3.563v1.645h7.093v3.693h1.8v-5.339h-3.529v-1.788h4.944V446.1h-11.731z" class="cls-3" transform="translate(-58.531 -7.498)"/>
            <path id="패스_83" d="M629.307 447.738h5.312v2.946h1.8v-2.946h4.628v-1.648h-11.74z" class="cls-3" transform="translate(-67.973 -7.346)"/>
            <path id="패스_84" d="M634.182 451.959h-1.8v5.341h8.473v-1.492h-6.675z" class="cls-3" transform="translate(-69.248 -9.925)"/>
            <path id="패스_85" d="M703.009 447.746h5.033v.968h-3.558v1.486h7.146v.841h-7.144v3.824h8.945v-1.492h-7.151v-.839h7.144v-3.825h-3.586v-.968h5.02V446.1h-11.849z" class="cls-3" transform="translate(-99.408 -7.498)"/>
            <path id="사각형_59" d="M0 0H1.612V15.493H0z" class="cls-3" transform="translate(600.225 431.879)"/>
            <path id="패스_86" d="M686.33 440.326h-1.385l.01-.034a3.882 3.882 0 0 0 .168-1.134l-.045-.575h1.252zm-5.149 1.052a2.222 2.222 0 1 1 2.222-2.221 2.223 2.223 0 0 1-2.222 2.221m5.149-4.452h-1.9a3.932 3.932 0 1 0-.482 5.047h2.384v8.15h1.612v-15.492h-1.614z" class="cls-3" transform="translate(-88.402 -2.752)"/>
            <path id="패스_87" d="M707.723 434.607l-4.74 5.4h2.363l3.577-4.068.021.024s3.538 4.029 3.538 4.043h2.38c-.387-.442-4.719-5.385-4.719-5.4z" class="cls-3" transform="translate(-99.397 -2.423)"/>
            <path id="패스_88" d="M616.9 440h1.8v-5.37h-8.983v1.645h7.183z" class="cls-3" transform="translate(-59.591 -2.434)"/>
            <path id="패스_89" d="M639.087 438.352H633.3v-2.081h5.785zm1.794-3.729h-9.37v5.372h9.369v-5.374" class="cls-3" transform="translate(-68.886 -2.43)"/>
            <path id="패스_90" d="M752.61 450.824h1.8v-1.988h4v-1.648h-8.673v1.648h2.877z" class="cls-3" transform="translate(-119.628 -7.802)"/>
            <path id="패스_91" d="M764.689 436.215v1.63h-1.537v1.647h1.537v6.134h1.795V434.63h-1.8z" class="cls-3" transform="translate(-125.182 -2.487)"/>
            <path id="패스_92" d="M654.829 438.379a1.863 1.863 0 0 1 1.428-1.795 1.9 1.9 0 0 1 .952 0 1.862 1.862 0 1 1-2.38 1.795m9.362-4.081h-1.8v9.141h-4.78v-1.593h-.087a3.582 3.582 0 0 0 2.854-3.467 3.46 3.46 0 0 0-.529-1.834h1.03v-1.6h-3.218l-.032-.008v-1.085h-1.79v1.083l-.041.01h-3.23v1.6h1.042a3.46 3.46 0 0 0-.529 1.834 3.582 3.582 0 0 0 2.844 3.464h-.111v1.6h-3.281v1.605h9.858v4.35h1.8V439.6h1.554V438h-1.554z" class="cls-3" transform="translate(-77.899 -2.022)"/>
            <path id="패스_93" d="M753.712 435.9a1.727 1.727 0 1 1-1.728 1.727 1.73 1.73 0 0 1 1.728-1.727m0 5.238a3.51 3.51 0 1 0-3.512-3.511 3.516 3.516 0 0 0 3.512 3.511" class="cls-3" transform="translate(-119.821 -2.128)"/>
        </g>
    </g>
</svg>
