<svg xmlns="http://www.w3.org/2000/svg" width="196" height="40" viewBox="0 0 196 40">
    <defs>
        <style>
            .cls-8{fill:#070303}
        </style>
    </defs>
    <g id="ci_01" transform="translate(-79.251 -1144.533)">
        <path id="사각형_102" fill="none" d="M0 0H196V40H0z" opacity="0.5" transform="translate(79.251 1144.533)"/>
        <g id="ci" transform="translate(80 1154.148)">
            <path id="패스_25" fill="#feae17" d="M97.276 133.3c-3.379.089-6.164 3.1-7.145 7.02 2.757.742 4.582 2.323 4.725 5.443.091 1.968-1.215 3.768-3.425 4.907 1.139 1.521 2.975 2.419 5.845 2.3 5.816-.233 7.556-3.319 7.556-8.752 0-5.364-2.01-10.925-7.35-10.926h-.206" transform="translate(-65.646 -132.029)"/>
            <path id="패스_26" fill="#2c7bc1" d="M65.516 150.129c-.108 3.037 4.556 6.073 10.412 6.073a12.467 12.467 0 0 0 5.688-1.256c-1.372-1.829-1.737-4.564-1.675-7.53a12.788 12.788 0 0 1 .375-2.816 21.136 21.136 0 0 0-5.133-.577h-.221c-6.581 0-9.35 3.426-9.447 6.106" transform="translate(-55.831 -136.299)"/>
            <path id="패스_27" fill="#000f3a" d="M94.6 150.426c-.143-3.119-1.968-4.7-4.726-5.441a12.8 12.8 0 0 0-.374 2.815c-.061 2.966.3 5.7 1.675 7.53 2.211-1.139 3.516-2.937 3.426-4.9" transform="translate(-65.392 -136.683)"/>
            <path id="패스_28" fill="#c5006d" d="M114.794 134.916a3.449 3.449 0 0 0 3.8 3.726 3.525 3.525 0 0 0 3.8-3.726c0-2.342-1.029-3.725-3.8-3.725s-3.8 1.383-3.8 3.725" transform="translate(-75.463 -131.191)"/>
            <path id="패스_29" fill="#9ea400" d="M49.411 152.221c0 1.836.888 3.068 3.976 3.068s3.977-1.232 3.977-3.068-1.868-5.175-3.977-5.175-3.976 3.338-3.976 5.175" transform="translate(-49.411 -137.506)"/>
            <path id="패스_30" fill="#a3a2a1" d="M117.8 152.2c0 2.182 2.011 3.337 9.706 3.337 5.36 0 9.649-1.77 9.707-3.951V151.533c-.019-2.625-6.567-4.239-11.891-4.239-5.362 0-7.523 2.722-7.523 4.9" transform="translate(-76.661 -137.604)"/>
            <path id="패스_31" d="M335.965 157.013h-1.843v3.762h8.539v-1.688h-6.7z" class="cls-8" transform="translate(-162.849 -141.478)"/>
            <path id="패스_32" d="M165.1 140.831a1.963 1.963 0 1 1 1.962 1.961 1.96 1.96 0 0 1-1.962-1.961m5.718 0a3.728 3.728 0 0 0-.545-1.938h1.06V137.2h-3.313l-.032-.008v-1.147h-1.844v1.145l-.042.011h-3.326v1.689h1.073a3.755 3.755 0 1 0 6.969 1.938" class="cls-8" transform="translate(-94.581 -133.128)"/>
            <path id="패스_33" d="M355.247 140.857a1.964 1.964 0 1 1 1.963 1.964 1.962 1.962 0 0 1-1.963-1.964m7.788-4.317v9.606h-4.908V144.5a3.747 3.747 0 0 0 2.3-5.583h1.061v-1.691h-3.316l-.032-.008v-1.148h-1.845v1.146l-.042.011h-3.328v1.691H354a3.747 3.747 0 0 0 2.29 5.581v1.648h-3.369v1.691h10.118v4.608h1.843v-15.907z" class="cls-8" transform="translate(-170.342 -133.136)"/>
            <path id="패스_34" d="M315.329 145.592h-9.7v1.688h3.495v5.469h1.84v-5.469h4.361v5.469h1.843v-15.9h-1.843z" class="cls-8" transform="translate(-151.491 -133.44)"/>
            <path id="패스_35" d="M309.811 138.714a2.038 2.038 0 1 1-2.039 2.037 2.042 2.042 0 0 1 2.039-2.037m0 5.866a3.829 3.829 0 1 0-3.829-3.829 3.833 3.833 0 0 0 3.829 3.829" class="cls-8" transform="translate(-151.643 -133.473)"/>
            <path id="패스_36" d="M181.319 136.851h-1.842v11.267h1.842v-5.734h1.587v-1.69h-1.587z" class="cls-8" transform="translate(-101.237 -133.445)"/>
            <path id="패스_37" d="M169.413 154.18h-1.844v5.495l9.007-.017v-1.688l-7.163.017z" class="cls-8" transform="translate(-96.491 -140.349)"/>
            <path id="패스_38" d="M186.65 150.007h5.116v1.835h-3.656v1.688h7.278v3.789h1.844v-5.478h-3.621v-1.835h5.081v-1.691H186.65z" class="cls-8" transform="translate(-104.093 -138.011)"/>
            <path id="패스_39" d="M208.788 150h5.45v3.023h1.843V150h4.749v-1.691h-12.042z" class="cls-8" transform="translate(-112.914 -138.011)"/>
            <path id="패스_40" d="M213.71 154.18h-1.845v5.478h8.694v-1.532h-6.849z" class="cls-8" transform="translate(-114.141 -140.349)"/>
            <path id="패스_41" d="M282.489 150.01h5.164v.99H284v1.53h7.333v.863H284v3.924h9.179v-1.531h-7.338v-.861h7.331V151H289.5v-.993h5.151v-1.694h-12.162z" class="cls-8" transform="translate(-142.28 -138.011)"/>
            <path id="사각형_13" d="M0 0H1.654V15.898H0z" class="cls-8" transform="translate(136.502 3.411)"/>
            <path id="패스_42" d="M266.048 142.7h-1.421l.011-.035a3.991 3.991 0 0 0 .172-1.164l-.046-.59h1.284zm-5.283 1.08a2.281 2.281 0 1 1 2.28-2.279 2.282 2.282 0 0 1-2.28 2.279m5.283-4.568H264.1a4.035 4.035 0 1 0-.494 5.179h2.447v8.363h1.647v-15.9h-1.654z" class="cls-8" transform="translate(-132.014 -133.44)"/>
            <path id="패스_43" d="M287.327 136.828l-4.863 5.539h2.425l3.67-4.174.021.025s3.631 4.135 3.631 4.149h2.442c-.4-.453-4.842-5.526-4.842-5.539z" class="cls-8" transform="translate(-142.27 -133.437)"/>
            <path id="패스_44" d="M196.572 142.363h1.844v-5.51H189.2v1.688h7.374z" class="cls-8" transform="translate(-105.109 -133.447)"/>
            <path id="패스_45" d="M218.766 140.67h-5.936v-2.135h5.936zm1.841-3.827h-9.614v5.512h9.614v-5.515" class="cls-8" transform="translate(-113.793 -133.443)"/>
            <path id="패스_46" d="M332.166 153.14h1.844v-2.04h4.1v-1.691h-8.9v1.691h2.952z" class="cls-8" transform="translate(-160.892 -138.449)"/>
            <path id="패스_47" d="M344.209 138.477v1.672h-1.579v1.69h1.577v6.294h1.842V136.85h-1.844z" class="cls-8" transform="translate(-166.241 -133.445)"/>
            <path id="패스_48" d="M234.369 140.842a1.956 1.956 0 1 1 1.954 1.955 1.953 1.953 0 0 1-1.954-1.955m9.607-4.3h-1.843v9.631h-4.9v-1.678h-.09a3.734 3.734 0 0 0 2.386-5.585h1.057v-1.684h-3.3l-.032-.008v-1.143h-1.837v1.141l-.042.011h-3.314v1.684h1.069a3.733 3.733 0 0 0 2.375 5.582h-.114v1.681h-3.366v1.691h10.115v4.583h1.843v-10.315h1.595v-1.69h-1.595z" class="cls-8" transform="translate(-122.17 -133.138)"/>
            <path id="패스_49" d="M333.284 138.163a1.772 1.772 0 1 1-1.773 1.772 1.775 1.775 0 0 1 1.773-1.772m0 5.374a3.6 3.6 0 1 0-3.6-3.6 3.607 3.607 0 0 0 3.6 3.6" class="cls-8" transform="translate(-161.078 -133.241)"/>
        </g>
    </g>
</svg>
